<?xml version="1.0" encoding="utf-8"?>
<!-- Generator: Adobe Illustrator 17.1.0, SVG Export Plug-In . SVG Version: 6.00 Build 0)  -->
<!DOCTYPE svg PUBLIC "-//W3C//DTD SVG 1.1//EN" "http://www.w3.org/Graphics/SVG/1.1/DTD/svg11.dtd">
<svg version="1.1" id="Layer_1" xmlns="http://www.w3.org/2000/svg" xmlns:xlink="http://www.w3.org/1999/xlink" x="0px" y="0px"
	 viewBox="0 0 18.061 18.06" enable-background="new 0 0 18.061 18.06" xml:space="preserve">
<g>
	<g>
		<path fill="#333C4E" d="M9.03,18.06C4.051,18.06,0,14.009,0,9.03C0,4.051,4.051,0,9.03,0s9.03,4.051,9.03,9.03
			C18.061,14.009,14.01,18.06,9.03,18.06z M9.03,1.5C4.878,1.5,1.5,4.878,1.5,9.03c0,4.152,3.378,7.53,7.53,7.53
			s7.53-3.378,7.53-7.53C16.561,4.878,13.183,1.5,9.03,1.5z"/>
	</g>
	<g>
		<g>
			<path fill="#333C4E" d="M7.86,12.802L4.644,9.586l0.994-0.994l2.129,2.129l4.573-5.463l1.076,0.901L7.86,12.802z"/>
		</g>
	</g>
</g>
</svg>
