<?xml version="1.0" encoding="utf-8"?>
<!-- Generator: Adobe Illustrator 17.1.0, SVG Export Plug-In . SVG Version: 6.00 Build 0)  -->
<!DOCTYPE svg PUBLIC "-//W3C//DTD SVG 1.1//EN" "http://www.w3.org/Graphics/SVG/1.1/DTD/svg11.dtd">
<svg version="1.1" id="Layer_1" xmlns="http://www.w3.org/2000/svg" xmlns:xlink="http://www.w3.org/1999/xlink" x="0px" y="0px"
	 viewBox="0 0 16.767 17.715" enable-background="new 0 0 16.767 17.715" xml:space="preserve">
<g>
	<g>
		<path fill="#333C4E" d="M13.562,17.715H0v-0.75c0-2.487,1.488-4.715,3.748-5.793c-0.586-0.701-0.922-1.596-0.922-2.538
			c0-2.179,1.774-3.952,3.955-3.952c2.181,0,3.956,1.773,3.956,3.952c0,0.942-0.336,1.837-0.923,2.538
			c2.26,1.078,3.748,3.306,3.748,5.793V17.715z M1.56,16.215h10.441c-0.312-1.926-1.806-3.538-3.845-4.054l-1.375-0.349
			l-1.375,0.349C3.366,12.677,1.872,14.29,1.56,16.215z M6.781,6.183c-1.354,0-2.455,1.1-2.455,2.452
			c0,0.89,0.483,1.711,1.261,2.145l1.194,0.665l1.194-0.665c0.778-0.433,1.261-1.255,1.261-2.145
			C9.236,7.282,8.135,6.183,6.781,6.183z"/>
	</g>
</g>
<g>
	<g>
		<polygon fill="#333C4E" points="16.766,1.976 16.766,3.476 14.796,3.476 14.796,5.446 13.296,5.446 13.296,3.476 11.326,3.476 
			11.326,1.976 13.296,1.976 13.296,-0.004 14.796,-0.004 14.796,1.976 		"/>
	</g>
</g>
</svg>
