<?xml version="1.0" encoding="utf-8"?>
<!-- Generator: Adobe Illustrator 17.1.0, SVG Export Plug-In . SVG Version: 6.00 Build 0)  -->
<!DOCTYPE svg PUBLIC "-//W3C//DTD SVG 1.1//EN" "http://www.w3.org/Graphics/SVG/1.1/DTD/svg11.dtd">
<svg version="1.1" id="Layer_1" xmlns="http://www.w3.org/2000/svg" xmlns:xlink="http://www.w3.org/1999/xlink" x="0px" y="0px"
	 viewBox="0 0 17.253 19.516" enable-background="new 0 0 17.253 19.516" xml:space="preserve">
<g>
	<g>
		<path fill="#333C4E" d="M9.55,15.656l-0.3,0.35l0.32-0.35H9.55z"/>
	</g>
	<g>
		<path fill="#333C4E" d="M0,4.656v14.86h8.18l2.07-2.38l1.55-1.78l0.22-0.25V4.656H0z M9.25,16.006l-0.77,0.84v-1.19h1.09
			L9.25,16.006z M10.52,14.156H6.98v0.75v3.11H1.5V6.156h9.02V14.156z"/>
	</g>
</g>
<g>
	<g>
		<polygon fill="#333C4E" points="17.25,1.976 17.25,3.476 15.28,3.476 15.28,5.446 13.78,5.446 13.78,3.476 11.81,3.476 
			11.81,1.976 13.78,1.976 13.78,-0.004 15.28,-0.004 15.28,1.976 		"/>
	</g>
</g>
</svg>
