<?xml version="1.0" encoding="utf-8"?>
<!-- Generator: Adobe Illustrator 17.1.0, SVG Export Plug-In . SVG Version: 6.00 Build 0)  -->
<!DOCTYPE svg PUBLIC "-//W3C//DTD SVG 1.1//EN" "http://www.w3.org/Graphics/SVG/1.1/DTD/svg11.dtd">
<svg version="1.1" id="Layer_1" xmlns="http://www.w3.org/2000/svg" xmlns:xlink="http://www.w3.org/1999/xlink" x="0px" y="0px"
	 viewBox="0 0 15.9 15.27" enable-background="new 0 0 15.9 15.27" xml:space="preserve">
<g>
	<g>
		<path fill="#333C4E" d="M15.9,15.27H0v-0.75c0-2.977,1.82-5.637,4.566-6.867c-0.756-0.83-1.193-1.924-1.193-3.08
			C3.373,2.051,5.426,0,7.95,0c2.523,0,4.576,2.051,4.576,4.573c0,1.156-0.438,2.25-1.192,3.08c2.746,1.23,4.566,3.891,4.566,6.867
			V15.27z M1.549,13.77h12.803c-0.319-2.431-2.173-4.482-4.724-5.127L7.95,8.219L6.272,8.643C3.721,9.288,1.869,11.339,1.549,13.77z
			 M7.95,1.5c-1.697,0-3.077,1.378-3.077,3.073c0,1.115,0.605,2.145,1.58,2.688L7.95,8.094L9.446,7.26
			c0.975-0.542,1.58-1.572,1.58-2.688C11.026,2.878,9.646,1.5,7.95,1.5z"/>
	</g>
</g>
</svg>
