<?xml version="1.0" encoding="utf-8"?>
<!-- Generator: Adobe Illustrator 17.1.0, SVG Export Plug-In . SVG Version: 6.00 Build 0)  -->
<!DOCTYPE svg PUBLIC "-//W3C//DTD SVG 1.1//EN" "http://www.w3.org/Graphics/SVG/1.1/DTD/svg11.dtd">
<svg version="1.1" id="Layer_1" xmlns="http://www.w3.org/2000/svg" xmlns:xlink="http://www.w3.org/1999/xlink" x="0px" y="0px"
	 viewBox="0 0 113.864 37.157" enable-background="new 0 0 113.864 37.157" xml:space="preserve">
<path fill="#F1EDE1" d="M10.042,37.157c-1.83,0-3.398-0.278-4.706-0.833c-1.308-0.556-2.348-1.369-3.12-2.439
	c-0.772-1.07-1.335-2.327-1.687-3.771C0.176,28.671,0,26.994,0,25.083V11.871c0-1.911,0.176-3.578,0.529-5
	c0.352-1.423,0.915-2.659,1.687-3.71s1.812-1.84,3.12-2.368S8.212,0,10.042,0c3.55,0,6.112,1.016,7.684,3.049
	c1.572,2.033,2.358,4.973,2.358,8.822v13.212c0,1.884-0.179,3.547-0.539,4.99c-0.359,1.443-0.925,2.704-1.697,3.781
	c-0.772,1.077-1.812,1.897-3.12,2.46S11.857,37.157,10.042,37.157z M6.251,31.242c0.698,1.098,1.961,1.647,3.791,1.647
	c1.829,0,3.093-0.549,3.791-1.647c0.698-1.098,1.047-2.717,1.047-4.858V10.57c0-2.114-0.346-3.693-1.037-4.736
	c-0.691-1.043-1.958-1.565-3.801-1.565c-1.843,0-3.11,0.522-3.801,1.565C5.549,6.877,5.204,8.456,5.204,10.57v15.814
	C5.204,28.525,5.553,30.145,6.251,31.242z"/>
<path fill="#F1EDE1" d="M26.303,36.792V0.366h6.505c3.876,0,6.796,0.752,8.761,2.256c1.965,1.504,2.947,4.004,2.947,7.501
	c0,2.168-0.386,3.984-1.159,5.448c-0.772,1.464-1.904,2.466-3.395,3.008l5.854,18.213h-5.163L35.409,19.88h-3.903v16.912H26.303z
	 M31.507,15.977h1.301c2.168,0,3.794-0.457,4.879-1.372c1.084-0.915,1.626-2.409,1.626-4.482c0-2.073-0.542-3.567-1.626-4.482
	c-1.084-0.915-2.71-1.372-4.879-1.372h-1.301V15.977z"/>
<path fill="#F1EDE1" d="M50.488,36.792V0.366h8.07c3.808,0,6.494,0.779,8.06,2.338c1.565,1.558,2.348,4.248,2.348,8.07v14.31
	c0,3.998-0.796,6.948-2.388,8.852c-1.592,1.904-4.279,2.856-8.06,2.856H50.488z M55.692,32.889h2.866
	c0.854,0,1.585-0.078,2.195-0.234c0.61-0.156,1.104-0.44,1.484-0.854c0.38-0.413,0.678-0.806,0.894-1.179
	c0.217-0.373,0.369-0.952,0.457-1.738c0.088-0.786,0.139-1.433,0.152-1.941c0.014-0.508,0.02-1.297,0.02-2.368
	c0-0.352,0-0.617,0-0.793V12.074c0-0.664-0.003-1.192-0.01-1.585c-0.007-0.393-0.027-0.857-0.061-1.392s-0.085-0.959-0.152-1.27
	c-0.068-0.312-0.163-0.661-0.285-1.047c-0.122-0.386-0.274-0.688-0.457-0.905c-0.183-0.217-0.406-0.444-0.671-0.681
	c-0.264-0.237-0.569-0.413-0.915-0.529c-0.346-0.115-0.749-0.21-1.209-0.285c-0.461-0.075-0.976-0.112-1.545-0.112h-2.764V32.889z"
	/>
<path fill="#F1EDE1" d="M94.351,36.792V0.366h6.505c3.876,0,6.796,0.752,8.761,2.256c1.965,1.504,2.947,4.004,2.947,7.501
	c0,2.168-0.386,3.984-1.159,5.448c-0.772,1.464-1.904,2.466-3.395,3.008l5.854,18.213h-5.163l-5.244-16.912h-3.903v16.912H94.351z
	 M99.554,15.977h1.301c2.168,0,3.794-0.457,4.878-1.372c1.084-0.915,1.626-2.409,1.626-4.482c0-2.073-0.542-3.567-1.626-4.482
	c-1.084-0.915-2.71-1.372-4.878-1.372h-1.301V15.977z"/>
<g>
	<circle fill="#18CAD1" cx="82.064" cy="5.382" r="3.003"/>
	<circle fill="#F1EDE1" cx="82.064" cy="18.579" r="3.003"/>
	<circle fill="#E85C41" cx="82.064" cy="31.776" r="3.003"/>
</g>
</svg>
